<svg xmlns="http://www.w3.org/2000/svg" viewBox="0 0 32 32"><g data-name="car 1"><path fill="#231f20" d="M8.26 16.94a1.48 1.48 0 1 0 1.48 1.48A1.48 1.48 0 0 0 8.26 16.94zm0 2a.52.52 0 0 1 0-1 .52.52 0 1 1 0 1zM23.74 16.94a1.48 1.48 0 1 0 1.48 1.48A1.48 1.48 0 0 0 23.74 16.94zm0 2a.52.52 0 0 1 0-1 .52.52 0 0 1 0 1z"/><path fill="#231f20" d="M27.63,11.61l-1-6.33,0-.13A3.56,3.56,0,0,0,23.07,2.9H8.9A3.56,3.56,0,0,0,5.39,5.15l0,.14L4.42,11.6a2.49,2.49,0,0,0-2,2.44v8.15a2.49,2.49,0,0,0,2.49,2.49h1a2,2,0,0,0-.08.55V27.1a2,2,0,0,0,2,2h.9a2,2,0,0,0,2-2V25.23a2.52,2.52,0,0,0-.08-.55H21.37a2.52,2.52,0,0,0-.08.55V27.1a2,2,0,0,0,2,2h.9a2,2,0,0,0,2-2V25.23a2,2,0,0,0-.08-.55h1a2.49,2.49,0,0,0,2.49-2.49V14A2.5,2.5,0,0,0,27.63,11.61ZM7.81,27.1V25.23h.9V27.1Zm15.48,0V25.23h.9V27.1ZM7.32,5.68A1.71,1.71,0,0,1,8.9,4.9H23.07a1.72,1.72,0,0,1,1.59.78l.94,5.87H6.45ZM27.58,22.19a.49.49,0,0,1-.49.49H4.91a.49.49,0,0,1-.49-.49V14a.49.49,0,0,1,.49-.49H27.09a.49.49,0,0,1,.49.49Z"/></g></svg>