<svg width="302" height="100" viewBox="0 0 302 100" fill="none" xmlns="http://www.w3.org/2000/svg">
<path d="M158.938 83L158.909 70.7862L152.918 80.848H150.795L144.834 71.0479V83H140.414V62.6437H144.31L151.93 75.2937L159.432 62.6437H163.3L163.358 83H158.938ZM183.397 67.3547L176.33 83.9597C175.613 85.7626 174.721 87.0325 173.655 87.7692C172.608 88.5059 171.338 88.8743 169.845 88.8743C169.031 88.8743 168.227 88.7482 167.432 88.4962C166.637 88.2442 165.987 87.8952 165.483 87.4493L167.141 84.2214C167.49 84.5316 167.887 84.7739 168.333 84.9484C168.798 85.1229 169.254 85.2101 169.7 85.2101C170.32 85.2101 170.824 85.055 171.212 84.7448C171.6 84.454 171.949 83.9597 172.259 83.2617L172.317 83.1163L165.541 67.3547H170.223L174.615 77.9691L179.035 67.3547H183.397ZM207.559 72.502H211.863V80.7608C210.757 81.5944 209.478 82.2342 208.024 82.6801C206.57 83.126 205.106 83.349 203.633 83.349C201.52 83.349 199.62 82.9031 197.933 82.0113C196.246 81.1001 194.918 79.8496 193.949 78.2599C192.999 76.6508 192.524 74.8381 192.524 72.8218C192.524 70.8056 192.999 69.0026 193.949 67.4129C194.918 65.8038 196.256 64.5533 197.962 63.6615C199.668 62.7503 201.587 62.2947 203.72 62.2947C205.504 62.2947 207.122 62.5952 208.576 63.1962C210.03 63.7972 211.252 64.6696 212.241 65.8135L209.216 68.6052C207.762 67.0736 206.008 66.3078 203.953 66.3078C202.654 66.3078 201.5 66.5792 200.492 67.1221C199.484 67.6649 198.699 68.4307 198.137 69.4194C197.574 70.4082 197.293 71.5423 197.293 72.8218C197.293 74.082 197.574 75.2064 198.137 76.1952C198.699 77.1839 199.474 77.9594 200.463 78.5216C201.471 79.0644 202.615 79.3359 203.894 79.3359C205.252 79.3359 206.473 79.0451 207.559 78.4634V72.502ZM222.229 67.1221C224.653 67.1221 226.514 67.7037 227.813 68.8669C229.112 70.0107 229.761 71.7459 229.761 74.0723V83H225.515V81.0516C224.662 82.5056 223.073 83.2326 220.746 83.2326C219.544 83.2326 218.497 83.0291 217.605 82.622C216.733 82.2148 216.064 81.6526 215.599 80.9353C215.134 80.218 214.901 79.4037 214.901 78.4925C214.901 77.0385 215.444 75.8947 216.529 75.061C217.635 74.2274 219.331 73.8106 221.619 73.8106H225.225C225.225 72.8218 224.924 72.0657 224.323 71.5423C223.722 70.9995 222.821 70.728 221.619 70.728C220.785 70.728 219.961 70.8638 219.147 71.1352C218.352 71.3872 217.673 71.7362 217.111 72.1821L215.483 69.0123C216.336 68.4113 217.353 67.946 218.536 67.6164C219.738 67.2869 220.969 67.1221 222.229 67.1221ZM221.88 80.1792C222.656 80.1792 223.344 80.0047 223.945 79.6557C224.546 79.2874 224.973 78.7543 225.225 78.0563V76.4569H222.113C220.252 76.4569 219.321 77.0676 219.321 78.289C219.321 78.8706 219.544 79.3359 219.99 79.6848C220.455 80.0144 221.085 80.1792 221.88 80.1792ZM238.2 69.4194C238.743 68.6633 239.47 68.0914 240.381 67.7037C241.311 67.3159 242.378 67.1221 243.58 67.1221V71.3097C243.076 71.2709 242.736 71.2515 242.562 71.2515C241.263 71.2515 240.245 71.6198 239.509 72.3566C238.772 73.0739 238.403 74.1595 238.403 75.6136V83H233.867V67.3547H238.2V69.4194ZM252.502 67.1221C254.926 67.1221 256.787 67.7037 258.086 68.8669C259.385 70.0107 260.034 71.7459 260.034 74.0723V83H255.789V81.0516C254.936 82.5056 253.346 83.2326 251.019 83.2326C249.817 83.2326 248.77 83.0291 247.879 82.622C247.006 82.2148 246.337 81.6526 245.872 80.9353C245.407 80.218 245.174 79.4037 245.174 78.4925C245.174 77.0385 245.717 75.8947 246.803 75.061C247.908 74.2274 249.604 73.8106 251.892 73.8106H255.498C255.498 72.8218 255.197 72.0657 254.596 71.5423C253.995 70.9995 253.094 70.728 251.892 70.728C251.058 70.728 250.234 70.8638 249.42 71.1352C248.625 71.3872 247.947 71.7362 247.384 72.1821L245.756 69.0123C246.609 68.4113 247.627 67.946 248.809 67.6164C250.011 67.2869 251.242 67.1221 252.502 67.1221ZM252.154 80.1792C252.929 80.1792 253.617 80.0047 254.218 79.6557C254.819 79.2874 255.246 78.7543 255.498 78.0563V76.4569H252.386C250.525 76.4569 249.594 77.0676 249.594 78.289C249.594 78.8706 249.817 79.3359 250.263 79.6848C250.729 80.0144 251.359 80.1792 252.154 80.1792ZM280.45 67.3547V80.3828C280.45 83.252 279.704 85.3846 278.211 86.7805C276.718 88.1763 274.537 88.8743 271.668 88.8743C270.156 88.8743 268.721 88.6901 267.364 88.3217C266.007 87.9534 264.882 87.4202 263.991 86.7223L265.794 83.4653C266.453 84.0081 267.286 84.4346 268.295 84.7448C269.303 85.0744 270.311 85.2392 271.319 85.2392C272.889 85.2392 274.043 84.8805 274.779 84.1632C275.536 83.4653 275.914 82.399 275.914 80.9644V80.2955C274.731 81.5944 273.083 82.2439 270.97 82.2439C269.535 82.2439 268.217 81.9337 267.015 81.3133C265.832 80.6736 264.892 79.7818 264.194 78.6379C263.496 77.4941 263.147 76.1758 263.147 74.683C263.147 73.1902 263.496 71.8719 264.194 70.728C264.892 69.5842 265.832 68.7021 267.015 68.0817C268.217 67.442 269.535 67.1221 270.97 67.1221C273.238 67.1221 274.964 67.8685 276.146 69.3613V67.3547H280.45ZM271.871 78.5216C273.073 78.5216 274.052 78.1726 274.809 77.4747C275.584 76.7574 275.972 75.8268 275.972 74.683C275.972 73.5392 275.584 72.6183 274.809 71.9203C274.052 71.203 273.073 70.8444 271.871 70.8444C270.669 70.8444 269.681 71.203 268.905 71.9203C268.13 72.6183 267.742 73.5392 267.742 74.683C267.742 75.8268 268.13 76.7574 268.905 77.4747C269.681 78.1726 270.669 78.5216 271.871 78.5216ZM299.998 75.2355C299.998 75.2937 299.969 75.7008 299.911 76.4569H288.075C288.288 77.4262 288.792 78.192 289.587 78.7543C290.382 79.3165 291.371 79.5976 292.553 79.5976C293.368 79.5976 294.085 79.4813 294.705 79.2486C295.345 78.9966 295.936 78.6089 296.479 78.0854L298.893 80.7026C297.419 82.3893 295.267 83.2326 292.437 83.2326C290.673 83.2326 289.112 82.8934 287.755 82.2148C286.398 81.5169 285.351 80.5572 284.614 79.3359C283.878 78.1145 283.509 76.7283 283.509 75.1774C283.509 73.6458 283.868 72.2693 284.585 71.0479C285.322 69.8072 286.32 68.8475 287.581 68.169C288.86 67.471 290.285 67.1221 291.855 67.1221C293.387 67.1221 294.773 67.4517 296.014 68.1108C297.255 68.77 298.224 69.7199 298.922 70.9607C299.639 72.1821 299.998 73.607 299.998 75.2355ZM291.884 70.5536C290.857 70.5536 289.994 70.8444 289.296 71.426C288.598 72.0076 288.172 72.8025 288.017 73.8106H295.723C295.568 72.8218 295.141 72.0367 294.444 71.4551C293.746 70.8541 292.893 70.5536 291.884 70.5536Z" fill="white"/>
<path fill-rule="evenodd" clip-rule="evenodd" d="M24.6908 1.74213C18.2488 4.54813 13.5208 13.4841 14.8808 20.2831C15.4768 23.2661 14.9888 24.0421 8.21575 30.8601C0.00575399 39.1251 -1.21724 42.9261 3.18476 46.4911C6.98176 49.5661 9.07676 48.7191 17.1818 40.8301L24.8938 33.3261L29.4918 33.9561C38.7518 35.2251 48.2408 27.2031 48.2408 18.1041C48.2408 12.4501 45.7338 12.4251 40.0508 18.0231L35.2158 22.7841L30.5038 18.0721L25.7918 13.3601L30.6528 8.42413C37.6388 1.33213 34.2788 -2.43387 24.6908 1.74213ZM25.8568 8.33813C18.2608 16.7461 32.3458 30.5441 40.4488 22.6321C43.3998 19.7501 44.2408 19.3291 44.2408 20.7321C44.2408 26.0331 34.5828 31.3731 28.1188 29.6481C24.3858 28.6521 24.3578 28.6671 17.5578 35.5631C9.11376 44.1261 7.55075 45.0731 5.40275 42.9261C3.93075 41.4531 4.46875 40.6441 11.9588 33.0781L20.1198 24.8351L19.0668 20.3251C17.7078 14.5061 19.7378 9.22213 24.4308 6.36113C29.4308 3.31213 29.8598 3.90713 25.8568 8.33813ZM49.7408 30.1721C46.2678 32.2901 40.5628 38.5351 39.0328 41.8931C38.0968 43.9461 37.3518 44.1831 32.3598 44.0191C26.1078 43.8141 23.8048 46.5481 29.7408 47.1281C35.4278 47.6831 35.5998 48.0981 31.9238 52.3921C26.3368 58.9201 24.2938 71.3881 28.1758 75.2701C37.5598 84.6541 112.462 84.4491 118.455 75.0221C121.264 70.6061 117.591 54.3431 112.911 50.4721C110.61 48.5681 111.746 47.3351 115.8 47.3351C118.223 47.3351 119.241 46.8821 119.241 45.8041C119.241 43.5681 116.464 42.8621 112.175 44.0071C108.727 44.9271 108.326 44.8161 107.35 42.6751C105.614 38.8651 97.9878 31.1441 94.5228 29.6871C89.1118 27.4131 53.6348 27.7971 49.7408 30.1721ZM73.1248 41.8941C76.4888 47.1511 79.2408 51.7221 79.2408 52.0511C79.2408 52.3811 71.3348 52.3641 61.6718 52.0151C45.3678 51.4251 44.1268 51.5041 44.4338 53.1071C45.0808 56.4841 96.7888 57.6151 100.737 54.3381C102.617 52.7781 101.768 51.3471 98.9317 51.2941C97.3207 51.2641 95.5938 49.4101 92.4088 44.2941C88.3288 37.7401 86.1568 36.0441 84.7508 38.3181C84.4168 38.8591 85.9527 41.9661 88.1637 45.2221C92.4127 51.4781 92.2457 52.3351 86.7747 52.3351C84.8367 52.3351 72.2408 35.3851 72.2408 32.7761C72.2408 30.8271 92.1398 32.5471 95.1328 34.7551C99.1258 37.7011 103.861 43.9741 104.742 47.4851C105.099 48.9071 106.704 51.0401 108.308 52.2261C112.593 55.3951 115.241 61.2901 115.241 67.6631V73.0711L109.491 74.6641C89.5938 80.1741 47.6858 79.6611 33.3668 73.7311C27.6868 71.3791 30.5708 56.3091 37.4438 52.4311C39.3438 51.3591 40.6298 49.5211 41.3598 46.8351C42.0698 44.2221 44.2658 41.0141 47.6918 37.5851L52.9368 32.3351H59.9728H67.0088L73.1248 41.8941ZM39.8708 62.5851C36.5288 65.6161 35.4628 70.8551 37.9268 72.1481C42.3658 74.4781 54.3678 75.6371 56.0968 73.9031C59.3268 70.6641 50.6118 60.3351 44.6488 60.3351C43.3858 60.3351 41.2358 61.3481 39.8708 62.5851ZM99.6858 61.2941C87.8518 66.0871 89.2518 76.4741 101.444 74.3361C111.216 72.6221 111.241 72.6071 111.241 68.7221C111.241 62.5131 105.611 58.8941 99.6858 61.2941ZM48.9348 66.7501C52.4938 69.8131 51.5468 70.7581 45.7868 69.8941C41.2228 69.2101 40.1558 67.8201 42.4408 65.5351C44.2158 63.7601 45.8068 64.0571 48.9348 66.7501ZM106.287 66.4211C107.738 69.1321 107.496 69.2971 101.127 69.9441L95.7408 70.4921L99.0068 67.4131C102.834 63.8061 104.748 63.5451 106.287 66.4211ZM64.3448 73.2491C60.6248 75.6051 64.0817 77.3351 72.5098 77.3351C81.2078 77.3351 84.1947 76.1891 82.0947 73.6591C80.8287 72.1341 66.6238 71.8061 64.3448 73.2491ZM28.7908 81.2541C27.7748 82.8971 28.9148 84.0721 32.7548 85.3401C36.1048 86.4451 36.2408 86.6811 36.2408 91.3891C36.2408 101.617 49.5618 102.812 50.9188 92.7061L51.4378 88.8351H73.3398H95.2418L95.2408 91.8941C95.2408 96.1471 97.1137 98.2781 101.475 98.9861C107.449 99.9551 110.241 97.5151 110.241 91.3251C110.241 86.5751 110.395 86.2981 113.829 84.8631C122.499 81.2401 116.924 80.1251 104.241 82.9451C97.1808 84.5151 91.7598 84.8261 72.2408 84.7821C49.3798 84.7301 45.9878 84.3981 32.0998 80.8481C30.5568 80.4541 29.1808 80.6221 28.7908 81.2541ZM46.0538 91.0851C46.3458 94.1131 46.1578 94.3351 43.3038 94.3351C40.4588 94.3351 40.2408 94.0811 40.2408 90.7691C40.2408 85.6221 45.5558 85.9111 46.0538 91.0851ZM106.241 90.8351C106.241 94.1681 106.074 94.3351 102.741 94.3351C96.6218 94.3351 97.8328 87.6301 103.991 87.4141C105.911 87.3471 106.241 87.8491 106.241 90.8351Z" fill="white"/>
<path fill-rule="evenodd" clip-rule="evenodd" d="M24.6908 1.74213C18.2488 4.54813 13.5208 13.4841 14.8808 20.2831C15.4768 23.2661 14.9888 24.0421 8.21575 30.8601C0.00575399 39.1251 -1.21724 42.9261 3.18476 46.4911C6.98176 49.5661 9.07676 48.7191 17.1818 40.8301L24.8938 33.3261L29.4918 33.9561C38.7518 35.2251 48.2408 27.2031 48.2408 18.1041C48.2408 12.4501 45.7338 12.4251 40.0508 18.0231L35.2158 22.7841L30.5038 18.0721L25.7918 13.3601L30.6528 8.42413C37.6388 1.33213 34.2788 -2.43387 24.6908 1.74213ZM25.8568 8.33813C18.2608 16.7461 32.3458 30.5441 40.4488 22.6321C43.3998 19.7501 44.2408 19.3291 44.2408 20.7321C44.2408 26.0331 34.5828 31.3731 28.1188 29.6481C24.3858 28.6521 24.3578 28.6671 17.5578 35.5631C9.11376 44.1261 7.55075 45.0731 5.40275 42.9261C3.93075 41.4531 4.46875 40.6441 11.9588 33.0781L20.1198 24.8351L19.0668 20.3251C17.7078 14.5061 19.7378 9.22213 24.4308 6.36113C29.4308 3.31213 29.8598 3.90713 25.8568 8.33813Z" fill="#FD7014"/>
</svg>
